<svg viewBox="0 0 948 944" xmlns="http://www.w3.org/2000/svg">
    <path fillRule="evenodd" clipRule="evenodd"
        d="M226.798 80.4484C223.542 82.7825 217.239 86.3304 218.076 81.8489C219.122 76.247 237.962 3.77202 240.753 2.02142C243.544 0.270819 246.683 -1.47978 249.125 2.02142C251.568 5.52263 273.547 79.0479 270.756 80.4484C267.965 81.8489 262.731 83.2494 261.685 81.8489C260.848 80.7285 249.707 38.9008 244.241 18.127L226.798 80.4484ZM684.013 18.6506C622.679 16.9839 510.634 65.5188 565.013 173.65C608.513 260.151 805.013 263.151 805.013 137.651C805.013 92.1505 764.513 2.65054 655.513 13.1505C650.513 11.3172 645.713 7.35056 666.513 6.15055C699.513 4.24669 803.013 19.1505 815.513 123.151C827.032 218.995 735.785 246.98 685.399 247.179C688.461 259.535 691.161 272.146 693.54 284.874C693.546 284.897 693.551 284.921 693.556 284.946C693.571 285.014 693.583 285.086 693.593 285.16C693.888 286.742 694.178 288.325 694.463 289.909C715.491 292.149 752.849 307.596 781.601 355.264C817.996 415.602 824.672 414.786 832.911 413.78L832.912 413.779C833.275 413.735 833.641 413.69 834.013 413.651C856.013 411.291 901.513 318.151 901.513 318.151C885.346 305.817 859.613 276.151 888.013 256.151C916.413 236.151 935.179 251.151 941.013 261.151C948.846 272.484 957.013 296.151 917.513 316.151C914.294 321.689 910.869 327.967 907.228 334.639L907.225 334.644C886.544 372.543 858.929 423.151 823.013 423.151C811.382 423.151 801.89 407.115 789.92 386.892L789.92 386.892L789.919 386.89C781.306 372.34 771.411 355.622 758.513 341.151C740.522 320.966 710.209 300.781 695.96 298.508C715.416 414.03 709.799 534.993 708.683 559.021L708.682 559.045C708.577 561.303 708.513 562.7 708.513 563.151C708.513 564.358 708.396 565.474 708.175 566.475C735.567 625.771 745.722 664.129 754.982 699.106L754.983 699.107C769.431 753.681 781.701 800.024 853.866 904.828L844.866 909.328L844.608 908.956C835.991 915.686 790.884 933.341 768.513 941.651C758.013 942.651 736.213 938.651 733.013 914.651C729.013 884.651 761.013 867.651 782.013 871.651C796.173 874.348 817.723 883.155 831.031 889.15C765.013 791.748 757.932 763.599 745.974 716.067C738.7 687.149 729.62 651.056 704.365 587.829C704.139 587.263 703.925 586.693 703.722 586.121C694.216 615.096 669.417 692.03 659.513 735.651C647.735 787.522 678.305 900.537 683.437 919.511L683.441 919.525C683.699 920.48 683.893 921.195 684.013 921.651C686.513 931.151 676.513 934.151 671.013 926.651C665.513 919.151 603.013 852.651 586.513 890.651C570.013 928.651 659.513 934.151 659.513 934.151C659.513 934.151 664.013 934.151 665.513 937.651C667.917 943.26 645.513 950.151 595.513 929.651C545.513 909.151 582.513 861.151 617.013 871.151C651.513 881.151 665.513 903.651 665.513 903.651C665.513 903.651 635.988 776.651 648.513 719.151C658.383 673.835 685.303 595.292 696.269 564.039C694.616 553.388 695.491 528.305 696.504 499.278V499.276V499.275V499.273L696.504 499.268L696.504 499.266V499.265V499.264C697.224 478.629 698.013 456.002 698.013 435.151C698.013 406.02 691.329 354.901 684.31 309.981C580.985 450.954 532.882 433.02 509.013 409.151C501.389 401.527 462.433 336.688 454.026 286.469C420.592 283.21 409.84 271.921 401.013 260.151C393.813 250.551 408.179 229.817 416.513 223.151C409.846 204.651 396.413 166.551 396.013 162.151C395.613 157.751 404.846 158.317 409.513 159.151C416.513 187.151 420.628 197.734 427.013 214.151C427.431 215.227 429.393 214.644 432.267 213.792C441.363 211.094 459.588 205.687 466.896 241.569L467.013 241.651C467.013 290.151 490.013 384.651 540.013 415.151C568.834 432.731 621.362 368.38 662.325 318.198L662.327 318.194C669.217 309.754 675.779 301.715 681.846 294.534C678.848 276.102 675.923 259.407 673.57 246.656L673.513 246.651C648.513 244.151 541.013 229.151 541.013 118.651C541.013 41.6505 626.346 9.81722 674.513 13.1505C680.179 13.6506 690.013 15.4506 684.013 18.6506ZM841.156 903.959C835.387 903.32 825.776 898.636 814.941 893.355C800.004 886.074 782.74 877.66 770.013 877.151C745.013 876.151 733.013 922.539 762.513 935.651C775.58 941.458 808.614 923.098 831.753 910.238L832.614 909.76L833.694 909.159C834.308 908.818 834.915 908.482 835.513 908.151C837.524 907.263 840.073 906.25 842.274 905.58C841.899 905.038 841.527 904.497 841.156 903.959ZM911.513 309.651C925.32 309.651 936.513 292.144 936.513 281.651C936.513 271.157 929.32 256.651 915.513 256.651C901.705 256.651 886.513 271.157 886.513 281.651C886.513 292.144 897.705 309.651 911.513 309.651ZM442.752 229.069C442.095 228.266 441.349 227.184 440.513 225.651C437.513 220.151 430.513 222.984 431.013 225.651L437.013 246.151C434.679 247.317 429.213 249.751 426.013 250.151C424.052 250.396 423.338 245.955 422.685 241.894C422.007 237.67 421.394 233.856 419.513 236.151C403.546 255.622 432.255 271.934 452.855 277.704C450.105 252.755 446.885 237.89 442.752 229.069ZM18.166 116.887H441.911V110.887L8.41147 109.07C2.01859 109.488 -0.450878 112.046 0.0666546 114.178L13.4677 519.794C13.6399 519.868 13.8104 519.94 13.9791 520.01C14.419 523.615 17.0229 527.203 22.3246 527.887L580.411 453.387V441.543L31.1999 511.392L18.166 116.887ZM173.604 528.305L185.237 529.312L151.879 914.871L140.245 913.865L173.604 528.305ZM368.259 504.887L356.911 507.643L448.247 883.71L459.595 880.954L368.259 504.887Z"
        fill="white" />
    <path
        d="M662.292 181.271C655.508 165.818 688.626 162.271 702.792 163.271C711.292 172.771 675.292 165.771 674.292 175.771C672.942 189.271 706.292 183.771 707.292 188.771C708.292 193.771 671.292 201.771 662.292 181.271Z"
        fill="white" />
    <path
        d="M656.292 115.771C659.892 112.171 660.126 97.9373 659.792 91.2707C662.626 89.104 668.592 86.0707 669.792 91.2707C671.292 97.7707 665.292 119.271 662.792 120.271C660.292 121.271 651.792 120.271 656.292 115.771Z"
        fill="white" />
    <path
        d="M723.949 116.794C727.102 112.797 725.663 98.6344 724.549 92.053C727.109 89.5687 732.678 85.856 734.48 90.8792C736.733 97.1582 733.298 119.214 730.932 120.5C728.567 121.787 720.008 121.791 723.949 116.794Z"
        fill="white" />
</svg>